solid OpenSCAD_Model
  facet normal -0 0.120554 0.992707
    outer loop
      vertex -1.5 1.91453 15.7675
      vertex 1.5 0 16
      vertex 1.5 1.91453 15.7675
    endloop
  endfacet
  facet normal 0 0.120554 0.992707
    outer loop
      vertex 1.5 0 16
      vertex -1.5 1.91453 15.7675
      vertex -1.5 0 16
    endloop
  endfacet
  facet normal 0 1 -0
    outer loop
      vertex 1.5 7.94167 7.03571
      vertex -1.5 7.94167 8.96429
      vertex 1.5 7.94167 8.96429
    endloop
  endfacet
  facet normal 0 1 0
    outer loop
      vertex -1.5 7.94167 8.96429
      vertex 1.5 7.94167 7.03571
      vertex -1.5 7.94167 7.03571
    endloop
  endfacet
  facet normal 0 0.885458 0.464719
    outer loop
      vertex 1.5 7.48013 10.8368
      vertex -1.5 6.58387 12.5445
      vertex 1.5 6.58387 12.5445
    endloop
  endfacet
  facet normal 0 0.885458 0.464719
    outer loop
      vertex -1.5 6.58387 12.5445
      vertex 1.5 7.48013 10.8368
      vertex -1.5 7.48013 10.8368
    endloop
  endfacet
  facet normal -0 0.354613 0.935013
    outer loop
      vertex -1.5 3.71778 15.0836
      vertex 1.5 1.91453 15.7675
      vertex 1.5 3.71778 15.0836
    endloop
  endfacet
  facet normal 0 0.354613 0.935013
    outer loop
      vertex 1.5 1.91453 15.7675
      vertex -1.5 3.71778 15.0836
      vertex -1.5 1.91453 15.7675
    endloop
  endfacet
  facet normal 0 0.748518 0.663115
    outer loop
      vertex 1.5 6.58387 12.5445
      vertex -1.5 5.30498 13.9881
      vertex 1.5 5.30498 13.9881
    endloop
  endfacet
  facet normal 0 0.748518 0.663115
    outer loop
      vertex -1.5 5.30498 13.9881
      vertex 1.5 6.58387 12.5445
      vertex -1.5 6.58387 12.5445
    endloop
  endfacet
  facet normal 0 -0.970942 -0.239315
    outer loop
      vertex -1.5 -7.48013 5.16316
      vertex 1.5 -7.94167 7.03571
      vertex -1.5 -7.94167 7.03571
    endloop
  endfacet
  facet normal 0 -0.970942 -0.239315
    outer loop
      vertex 1.5 -7.94167 7.03571
      vertex -1.5 -7.48013 5.16316
      vertex 1.5 -7.48013 5.16316
    endloop
  endfacet
  facet normal 0 0.748511 -0.663123
    outer loop
      vertex 1.5 6.18035 3
      vertex -1.5 6.58387 3.45548
      vertex 1.5 6.58387 3.45548
    endloop
  endfacet
  facet normal 0 0.748511 -0.663123
    outer loop
      vertex -1.5 6.58387 3.45548
      vertex 1.5 6.18035 3
      vertex -1.5 6.18035 3
    endloop
  endfacet
  facet normal 0 0.885456 -0.464723
    outer loop
      vertex 1.5 6.58387 3.45548
      vertex -1.5 7.48013 5.16316
      vertex 1.5 7.48013 5.16316
    endloop
  endfacet
  facet normal 0 0.885456 -0.464723
    outer loop
      vertex -1.5 7.48013 5.16316
      vertex 1.5 6.58387 3.45548
      vertex -1.5 6.58387 3.45548
    endloop
  endfacet
  facet normal -0 0.568042 0.823
    outer loop
      vertex -1.5 5.30498 13.9881
      vertex 1.5 3.71778 15.0836
      vertex 1.5 5.30498 13.9881
    endloop
  endfacet
  facet normal 0 0.568042 0.823
    outer loop
      vertex 1.5 3.71778 15.0836
      vertex -1.5 5.30498 13.9881
      vertex -1.5 3.71778 15.0836
    endloop
  endfacet
  facet normal 0 0.970941 0.239319
    outer loop
      vertex 1.5 7.94167 8.96429
      vertex -1.5 7.48013 10.8368
      vertex 1.5 7.48013 10.8368
    endloop
  endfacet
  facet normal 0 0.970941 0.239319
    outer loop
      vertex -1.5 7.48013 10.8368
      vertex 1.5 7.94167 8.96429
      vertex -1.5 7.94167 8.96429
    endloop
  endfacet
  facet normal 0 -0.748518 0.663115
    outer loop
      vertex -1.5 -6.58387 12.5445
      vertex 1.5 -5.30498 13.9881
      vertex -1.5 -5.30498 13.9881
    endloop
  endfacet
  facet normal 0 -0.748518 0.663115
    outer loop
      vertex 1.5 -5.30498 13.9881
      vertex -1.5 -6.58387 12.5445
      vertex 1.5 -6.58387 12.5445
    endloop
  endfacet
  facet normal 1 0 0
    outer loop
      vertex 1.5 7.94167 8.96429
      vertex 1.5 4.6194 9.91342
      vertex 1.5 5 8
    endloop
  endfacet
  facet normal 1 0 0
    outer loop
      vertex 1.5 3.53553 11.5355
      vertex 1.5 5.30498 13.9881
      vertex 1.5 3.71778 15.0836
    endloop
  endfacet
  facet normal 1 0 0
    outer loop
      vertex 1.5 6.58387 12.5445
      vertex 1.5 3.53553 11.5355
      vertex 1.5 4.6194 9.91342
    endloop
  endfacet
  facet normal 1 0 0
    outer loop
      vertex 1.5 1.91342 12.6194
      vertex 1.5 3.71778 15.0836
      vertex 1.5 1.91453 15.7675
    endloop
  endfacet
  facet normal 1 0 0
    outer loop
      vertex 1.5 3.71778 15.0836
      vertex 1.5 1.91342 12.6194
      vertex 1.5 3.53553 11.5355
    endloop
  endfacet
  facet normal 1 0 0
    outer loop
      vertex 1.5 0 13
      vertex 1.5 1.91453 15.7675
      vertex 1.5 0 16
    endloop
  endfacet
  facet normal 1 0 0
    outer loop
      vertex 1.5 1.91453 15.7675
      vertex 1.5 0 13
      vertex 1.5 1.91342 12.6194
    endloop
  endfacet
  facet normal 1 -0 0
    outer loop
      vertex 1.5 -1.91453 15.7675
      vertex 1.5 0 13
      vertex 1.5 0 16
    endloop
  endfacet
  facet normal 1 0 0
    outer loop
      vertex 1.5 0 13
      vertex 1.5 -1.91453 15.7675
      vertex 1.5 -1.91342 12.6194
    endloop
  endfacet
  facet normal 1 -0 0
    outer loop
      vertex 1.5 -3.71778 15.0836
      vertex 1.5 -1.91342 12.6194
      vertex 1.5 -1.91453 15.7675
    endloop
  endfacet
  facet normal 1 0 0
    outer loop
      vertex 1.5 -1.91342 12.6194
      vertex 1.5 -3.71778 15.0836
      vertex 1.5 -3.53553 11.5355
    endloop
  endfacet
  facet normal 1 -0 0
    outer loop
      vertex 1.5 -5.30498 13.9881
      vertex 1.5 -3.53553 11.5355
      vertex 1.5 -3.71778 15.0836
    endloop
  endfacet
  facet normal 1 -0 0
    outer loop
      vertex 1.5 -6.58387 12.5445
      vertex 1.5 -3.53553 11.5355
      vertex 1.5 -5.30498 13.9881
    endloop
  endfacet
  facet normal 1 0 0
    outer loop
      vertex 1.5 -3.53553 11.5355
      vertex 1.5 -6.58387 12.5445
      vertex 1.5 -4.6194 9.91342
    endloop
  endfacet
  facet normal 1 -0 0
    outer loop
      vertex 1.5 4.6194 9.91342
      vertex 1.5 7.94167 8.96429
      vertex 1.5 7.48013 10.8368
    endloop
  endfacet
  facet normal 1 0 0
    outer loop
      vertex 1.5 7.94167 8.96429
      vertex 1.5 5 8
      vertex 1.5 7.94167 7.03571
    endloop
  endfacet
  facet normal 1 0 0
    outer loop
      vertex 1.5 4.6194 9.91342
      vertex 1.5 7.48013 10.8368
      vertex 1.5 6.58387 12.5445
    endloop
  endfacet
  facet normal 1 0 0
    outer loop
      vertex 1.5 4.6194 6.08658
      vertex 1.5 7.94167 7.03571
      vertex 1.5 5 8
    endloop
  endfacet
  facet normal 1 0 0
    outer loop
      vertex 1.5 7.94167 7.03571
      vertex 1.5 4.6194 6.08658
      vertex 1.5 7.48013 5.16316
    endloop
  endfacet
  facet normal 1 0 0
    outer loop
      vertex 1.5 3.53553 11.5355
      vertex 1.5 6.58387 12.5445
      vertex 1.5 5.30498 13.9881
    endloop
  endfacet
  facet normal 1 0 0
    outer loop
      vertex 1.5 7.48013 5.16316
      vertex 1.5 4.6194 6.08658
      vertex 1.5 6.58387 3.45548
    endloop
  endfacet
  facet normal 1 -0 0
    outer loop
      vertex 1.5 3.53553 4.46447
      vertex 1.5 6.58387 3.45548
      vertex 1.5 4.6194 6.08658
    endloop
  endfacet
  facet normal 1 0 0
    outer loop
      vertex 1.5 6.58387 3.45548
      vertex 1.5 3.53553 4.46447
      vertex 1.5 6.18035 3
    endloop
  endfacet
  facet normal 1 -0 0
    outer loop
      vertex 1.5 1.91342 3.3806
      vertex 1.5 6.18035 3
      vertex 1.5 3.53553 4.46447
    endloop
  endfacet
  facet normal 1 0 0
    outer loop
      vertex 1.5 6.18035 3
      vertex 1.5 1.91342 3.3806
      vertex 1.5 0 3
    endloop
  endfacet
  facet normal 1 0 0
    outer loop
      vertex 1.5 -1.91342 3.3806
      vertex 1.5 -6.18035 3
      vertex 1.5 0 3
    endloop
  endfacet
  facet normal 1 0 0
    outer loop
      vertex 1.5 -3.53553 4.46447
      vertex 1.5 -6.18035 3
      vertex 1.5 -1.91342 3.3806
    endloop
  endfacet
  facet normal 1 0 0
    outer loop
      vertex 1.5 -6.58387 3.45548
      vertex 1.5 -3.53553 4.46447
      vertex 1.5 -4.6194 6.08658
    endloop
  endfacet
  facet normal 1 -0 0
    outer loop
      vertex 1.5 -7.94167 7.03571
      vertex 1.5 -4.6194 6.08658
      vertex 1.5 -5 8
    endloop
  endfacet
  facet normal 1 -0 0
    outer loop
      vertex 1.5 -7.48013 10.8368
      vertex 1.5 -4.6194 9.91342
      vertex 1.5 -6.58387 12.5445
    endloop
  endfacet
  facet normal 1 0 0
    outer loop
      vertex 1.5 -7.94167 8.96429
      vertex 1.5 -4.6194 9.91342
      vertex 1.5 -7.48013 10.8368
    endloop
  endfacet
  facet normal 1 0 0
    outer loop
      vertex 1.5 -4.6194 9.91342
      vertex 1.5 -7.94167 8.96429
      vertex 1.5 -5 8
    endloop
  endfacet
  facet normal 1 0 0
    outer loop
      vertex 1.5 -7.94167 7.03571
      vertex 1.5 -5 8
      vertex 1.5 -7.94167 8.96429
    endloop
  endfacet
  facet normal 1 0 0
    outer loop
      vertex 1.5 -3.53553 4.46447
      vertex 1.5 -6.58387 3.45548
      vertex 1.5 -6.18035 3
    endloop
  endfacet
  facet normal 1 0 0
    outer loop
      vertex 1.5 -4.6194 6.08658
      vertex 1.5 -7.94167 7.03571
      vertex 1.5 -7.48013 5.16316
    endloop
  endfacet
  facet normal 1 0 0
    outer loop
      vertex 1.5 -4.6194 6.08658
      vertex 1.5 -7.48013 5.16316
      vertex 1.5 -6.58387 3.45548
    endloop
  endfacet
  facet normal 0 -0.748511 -0.663123
    outer loop
      vertex -1.5 -6.18035 3
      vertex 1.5 -6.58387 3.45548
      vertex -1.5 -6.58387 3.45548
    endloop
  endfacet
  facet normal 0 -0.748511 -0.663123
    outer loop
      vertex 1.5 -6.58387 3.45548
      vertex -1.5 -6.18035 3
      vertex 1.5 -6.18035 3
    endloop
  endfacet
  facet normal 0 0.970942 -0.239315
    outer loop
      vertex 1.5 7.48013 5.16316
      vertex -1.5 7.94167 7.03571
      vertex 1.5 7.94167 7.03571
    endloop
  endfacet
  facet normal 0 0.970942 -0.239315
    outer loop
      vertex -1.5 7.94167 7.03571
      vertex 1.5 7.48013 5.16316
      vertex -1.5 7.48013 5.16316
    endloop
  endfacet
  facet normal 0 -0.120554 0.992707
    outer loop
      vertex -1.5 0 16
      vertex 1.5 -1.91453 15.7675
      vertex 1.5 0 16
    endloop
  endfacet
  facet normal 0 -0.120554 0.992707
    outer loop
      vertex 1.5 -1.91453 15.7675
      vertex -1.5 0 16
      vertex -1.5 -1.91453 15.7675
    endloop
  endfacet
  facet normal 0 -0.568042 0.823
    outer loop
      vertex -1.5 -3.71778 15.0836
      vertex 1.5 -5.30498 13.9881
      vertex 1.5 -3.71778 15.0836
    endloop
  endfacet
  facet normal 0 -0.568042 0.823
    outer loop
      vertex 1.5 -5.30498 13.9881
      vertex -1.5 -3.71778 15.0836
      vertex -1.5 -5.30498 13.9881
    endloop
  endfacet
  facet normal 0 -0.885458 0.464719
    outer loop
      vertex -1.5 -7.48013 10.8368
      vertex 1.5 -6.58387 12.5445
      vertex -1.5 -6.58387 12.5445
    endloop
  endfacet
  facet normal 0 -0.885458 0.464719
    outer loop
      vertex 1.5 -6.58387 12.5445
      vertex -1.5 -7.48013 10.8368
      vertex 1.5 -7.48013 10.8368
    endloop
  endfacet
  facet normal 0 -1 0
    outer loop
      vertex -1.5 -7.94167 7.03571
      vertex 1.5 -7.94167 8.96429
      vertex -1.5 -7.94167 8.96429
    endloop
  endfacet
  facet normal 0 -1 -0
    outer loop
      vertex 1.5 -7.94167 8.96429
      vertex -1.5 -7.94167 7.03571
      vertex 1.5 -7.94167 7.03571
    endloop
  endfacet
  facet normal 0 -0.970941 0.239319
    outer loop
      vertex -1.5 -7.94167 8.96429
      vertex 1.5 -7.48013 10.8368
      vertex -1.5 -7.48013 10.8368
    endloop
  endfacet
  facet normal 0 -0.970941 0.239319
    outer loop
      vertex 1.5 -7.48013 10.8368
      vertex -1.5 -7.94167 8.96429
      vertex 1.5 -7.94167 8.96429
    endloop
  endfacet
  facet normal 0 -0.354613 0.935013
    outer loop
      vertex -1.5 -1.91453 15.7675
      vertex 1.5 -3.71778 15.0836
      vertex 1.5 -1.91453 15.7675
    endloop
  endfacet
  facet normal 0 -0.354613 0.935013
    outer loop
      vertex 1.5 -3.71778 15.0836
      vertex -1.5 -1.91453 15.7675
      vertex -1.5 -3.71778 15.0836
    endloop
  endfacet
  facet normal -1 0 0
    outer loop
      vertex -1.5 4.6194 6.08658
      vertex -1.5 7.94167 7.03571
      vertex -1.5 7.48013 5.16316
    endloop
  endfacet
  facet normal -1 0 0
    outer loop
      vertex -1.5 7.94167 7.03571
      vertex -1.5 5 8
      vertex -1.5 7.94167 8.96429
    endloop
  endfacet
  facet normal -1 0 0
    outer loop
      vertex -1.5 4.6194 6.08658
      vertex -1.5 7.48013 5.16316
      vertex -1.5 6.58387 3.45548
    endloop
  endfacet
  facet normal -1 0 0
    outer loop
      vertex -1.5 4.6194 9.91342
      vertex -1.5 7.94167 8.96429
      vertex -1.5 5 8
    endloop
  endfacet
  facet normal -1 0 0
    outer loop
      vertex -1.5 3.53553 4.46447
      vertex -1.5 6.58387 3.45548
      vertex -1.5 6.18035 3
    endloop
  endfacet
  facet normal -1 0 0
    outer loop
      vertex -1.5 7.94167 8.96429
      vertex -1.5 4.6194 9.91342
      vertex -1.5 7.48013 10.8368
    endloop
  endfacet
  facet normal -1 -0 0
    outer loop
      vertex -1.5 7.48013 10.8368
      vertex -1.5 4.6194 9.91342
      vertex -1.5 6.58387 12.5445
    endloop
  endfacet
  facet normal -1 -0 0
    outer loop
      vertex -1.5 7.94167 7.03571
      vertex -1.5 4.6194 6.08658
      vertex -1.5 5 8
    endloop
  endfacet
  facet normal -1 0 0
    outer loop
      vertex -1.5 6.58387 3.45548
      vertex -1.5 3.53553 4.46447
      vertex -1.5 4.6194 6.08658
    endloop
  endfacet
  facet normal -1 0 0
    outer loop
      vertex -1.5 6.18035 3
      vertex -1.5 1.91342 3.3806
      vertex -1.5 3.53553 4.46447
    endloop
  endfacet
  facet normal -1 0 -0
    outer loop
      vertex -1.5 1.91342 3.3806
      vertex -1.5 6.18035 3
      vertex -1.5 0 3
    endloop
  endfacet
  facet normal -1 0 0
    outer loop
      vertex -1.5 3.53553 11.5355
      vertex -1.5 6.58387 12.5445
      vertex -1.5 4.6194 9.91342
    endloop
  endfacet
  facet normal -1 -0 0
    outer loop
      vertex -1.5 6.58387 12.5445
      vertex -1.5 3.53553 11.5355
      vertex -1.5 5.30498 13.9881
    endloop
  endfacet
  facet normal -1 -0 0
    outer loop
      vertex -1.5 5.30498 13.9881
      vertex -1.5 3.53553 11.5355
      vertex -1.5 3.71778 15.0836
    endloop
  endfacet
  facet normal -1 0 0
    outer loop
      vertex -1.5 1.91342 12.6194
      vertex -1.5 3.71778 15.0836
      vertex -1.5 3.53553 11.5355
    endloop
  endfacet
  facet normal -1 -0 0
    outer loop
      vertex -1.5 3.71778 15.0836
      vertex -1.5 1.91342 12.6194
      vertex -1.5 1.91453 15.7675
    endloop
  endfacet
  facet normal -1 0 0
    outer loop
      vertex -1.5 0 13
      vertex -1.5 1.91453 15.7675
      vertex -1.5 1.91342 12.6194
    endloop
  endfacet
  facet normal -1 0 0
    outer loop
      vertex -1.5 0 13
      vertex -1.5 0 16
      vertex -1.5 1.91453 15.7675
    endloop
  endfacet
  facet normal -1 0 0
    outer loop
      vertex -1.5 -1.91453 15.7675
      vertex -1.5 0 13
      vertex -1.5 -1.91342 12.6194
    endloop
  endfacet
  facet normal -1 0 0
    outer loop
      vertex -1.5 0 13
      vertex -1.5 -1.91453 15.7675
      vertex -1.5 0 16
    endloop
  endfacet
  facet normal -1 0 0
    outer loop
      vertex -1.5 -3.71778 15.0836
      vertex -1.5 -1.91342 12.6194
      vertex -1.5 -3.53553 11.5355
    endloop
  endfacet
  facet normal -1 0 0
    outer loop
      vertex -1.5 -1.91342 12.6194
      vertex -1.5 -3.71778 15.0836
      vertex -1.5 -1.91453 15.7675
    endloop
  endfacet
  facet normal -1 0 0
    outer loop
      vertex -1.5 -6.58387 12.5445
      vertex -1.5 -3.53553 11.5355
      vertex -1.5 -4.6194 9.91342
    endloop
  endfacet
  facet normal -1 0 0
    outer loop
      vertex -1.5 -7.94167 8.96429
      vertex -1.5 -4.6194 9.91342
      vertex -1.5 -5 8
    endloop
  endfacet
  facet normal -1 0 0
    outer loop
      vertex -1.5 -3.53553 11.5355
      vertex -1.5 -5.30498 13.9881
      vertex -1.5 -3.71778 15.0836
    endloop
  endfacet
  facet normal -1 0 0
    outer loop
      vertex -1.5 -6.18035 3
      vertex -1.5 -1.91342 3.3806
      vertex -1.5 0 3
    endloop
  endfacet
  facet normal -1 0 0
    outer loop
      vertex -1.5 -6.18035 3
      vertex -1.5 -3.53553 4.46447
      vertex -1.5 -1.91342 3.3806
    endloop
  endfacet
  facet normal -1 0 0
    outer loop
      vertex -1.5 -6.58387 3.45548
      vertex -1.5 -3.53553 4.46447
      vertex -1.5 -6.18035 3
    endloop
  endfacet
  facet normal -1 -0 0
    outer loop
      vertex -1.5 -3.53553 4.46447
      vertex -1.5 -6.58387 3.45548
      vertex -1.5 -4.6194 6.08658
    endloop
  endfacet
  facet normal -1 0 0
    outer loop
      vertex -1.5 -7.48013 5.16316
      vertex -1.5 -4.6194 6.08658
      vertex -1.5 -6.58387 3.45548
    endloop
  endfacet
  facet normal -1 0 0
    outer loop
      vertex -1.5 -7.94167 7.03571
      vertex -1.5 -4.6194 6.08658
      vertex -1.5 -7.48013 5.16316
    endloop
  endfacet
  facet normal -1 0 0
    outer loop
      vertex -1.5 -3.53553 11.5355
      vertex -1.5 -6.58387 12.5445
      vertex -1.5 -5.30498 13.9881
    endloop
  endfacet
  facet normal -1 0 0
    outer loop
      vertex -1.5 -4.6194 6.08658
      vertex -1.5 -7.94167 7.03571
      vertex -1.5 -5 8
    endloop
  endfacet
  facet normal -1 0 0
    outer loop
      vertex -1.5 -4.6194 9.91342
      vertex -1.5 -7.48013 10.8368
      vertex -1.5 -6.58387 12.5445
    endloop
  endfacet
  facet normal -1 0 0
    outer loop
      vertex -1.5 -7.94167 8.96429
      vertex -1.5 -5 8
      vertex -1.5 -7.94167 7.03571
    endloop
  endfacet
  facet normal -1 -0 0
    outer loop
      vertex -1.5 -4.6194 9.91342
      vertex -1.5 -7.94167 8.96429
      vertex -1.5 -7.48013 10.8368
    endloop
  endfacet
  facet normal 0 -0.885456 -0.464723
    outer loop
      vertex -1.5 -6.58387 3.45548
      vertex 1.5 -7.48013 5.16316
      vertex -1.5 -7.48013 5.16316
    endloop
  endfacet
  facet normal 0 -0.885456 -0.464723
    outer loop
      vertex 1.5 -7.48013 5.16316
      vertex -1.5 -6.58387 3.45548
      vertex 1.5 -6.58387 3.45548
    endloop
  endfacet
  facet normal 0 -0.195089 -0.980786
    outer loop
      vertex -1.5 0 13
      vertex 1.5 1.91342 12.6194
      vertex 1.5 0 13
    endloop
  endfacet
  facet normal -0 -0.195089 -0.980786
    outer loop
      vertex 1.5 1.91342 12.6194
      vertex -1.5 0 13
      vertex -1.5 1.91342 12.6194
    endloop
  endfacet
  facet normal 0 -0.555574 0.831467
    outer loop
      vertex -1.5 3.53553 4.46447
      vertex 1.5 1.91342 3.3806
      vertex 1.5 3.53553 4.46447
    endloop
  endfacet
  facet normal 0 -0.555574 0.831467
    outer loop
      vertex 1.5 1.91342 3.3806
      vertex -1.5 3.53553 4.46447
      vertex -1.5 1.91342 3.3806
    endloop
  endfacet
  facet normal 0 0.980786 -0.195089
    outer loop
      vertex 1.5 -5 8
      vertex -1.5 -4.6194 9.91342
      vertex 1.5 -4.6194 9.91342
    endloop
  endfacet
  facet normal 0 0.980786 -0.195089
    outer loop
      vertex -1.5 -4.6194 9.91342
      vertex 1.5 -5 8
      vertex -1.5 -5 8
    endloop
  endfacet
  facet normal -0 0.195089 0.980786
    outer loop
      vertex -1.5 0 3
      vertex 1.5 -1.91342 3.3806
      vertex 1.5 0 3
    endloop
  endfacet
  facet normal 0 0.195089 0.980786
    outer loop
      vertex 1.5 -1.91342 3.3806
      vertex -1.5 0 3
      vertex -1.5 -1.91342 3.3806
    endloop
  endfacet
  facet normal 0 -0.980786 0.195089
    outer loop
      vertex -1.5 4.6194 6.08658
      vertex 1.5 5 8
      vertex -1.5 5 8
    endloop
  endfacet
  facet normal 0 -0.980786 0.195089
    outer loop
      vertex 1.5 5 8
      vertex -1.5 4.6194 6.08658
      vertex 1.5 4.6194 6.08658
    endloop
  endfacet
  facet normal 0 -0.831467 0.555574
    outer loop
      vertex -1.5 3.53553 4.46447
      vertex 1.5 4.6194 6.08658
      vertex -1.5 4.6194 6.08658
    endloop
  endfacet
  facet normal 0 -0.831467 0.555574
    outer loop
      vertex 1.5 4.6194 6.08658
      vertex -1.5 3.53553 4.46447
      vertex 1.5 3.53553 4.46447
    endloop
  endfacet
  facet normal 0 -0.980786 -0.195089
    outer loop
      vertex -1.5 5 8
      vertex 1.5 4.6194 9.91342
      vertex -1.5 4.6194 9.91342
    endloop
  endfacet
  facet normal 0 -0.980786 -0.195089
    outer loop
      vertex 1.5 4.6194 9.91342
      vertex -1.5 5 8
      vertex 1.5 5 8
    endloop
  endfacet
  facet normal 0 -0.831462 -0.555581
    outer loop
      vertex -1.5 4.6194 9.91342
      vertex 1.5 3.53553 11.5355
      vertex -1.5 3.53553 11.5355
    endloop
  endfacet
  facet normal 0 -0.831462 -0.555581
    outer loop
      vertex 1.5 3.53553 11.5355
      vertex -1.5 4.6194 9.91342
      vertex 1.5 4.6194 9.91342
    endloop
  endfacet
  facet normal 0 0.831467 0.555574
    outer loop
      vertex 1.5 -3.53553 4.46447
      vertex -1.5 -4.6194 6.08658
      vertex 1.5 -4.6194 6.08658
    endloop
  endfacet
  facet normal 0 0.831467 0.555574
    outer loop
      vertex -1.5 -4.6194 6.08658
      vertex 1.5 -3.53553 4.46447
      vertex -1.5 -3.53553 4.46447
    endloop
  endfacet
  facet normal 0 0.980786 0.195089
    outer loop
      vertex 1.5 -4.6194 6.08658
      vertex -1.5 -5 8
      vertex 1.5 -5 8
    endloop
  endfacet
  facet normal 0 0.980786 0.195089
    outer loop
      vertex -1.5 -5 8
      vertex 1.5 -4.6194 6.08658
      vertex -1.5 -4.6194 6.08658
    endloop
  endfacet
  facet normal -0 0.555574 0.831467
    outer loop
      vertex -1.5 -1.91342 3.3806
      vertex 1.5 -3.53553 4.46447
      vertex 1.5 -1.91342 3.3806
    endloop
  endfacet
  facet normal 0 0.555574 0.831467
    outer loop
      vertex 1.5 -3.53553 4.46447
      vertex -1.5 -1.91342 3.3806
      vertex -1.5 -3.53553 4.46447
    endloop
  endfacet
  facet normal 0 0.195089 -0.980786
    outer loop
      vertex -1.5 -1.91342 12.6194
      vertex 1.5 0 13
      vertex 1.5 -1.91342 12.6194
    endloop
  endfacet
  facet normal 0 0.195089 -0.980786
    outer loop
      vertex 1.5 0 13
      vertex -1.5 -1.91342 12.6194
      vertex -1.5 0 13
    endloop
  endfacet
  facet normal 0 0.555585 -0.83146
    outer loop
      vertex -1.5 -3.53553 11.5355
      vertex 1.5 -1.91342 12.6194
      vertex 1.5 -3.53553 11.5355
    endloop
  endfacet
  facet normal 0 0.555585 -0.83146
    outer loop
      vertex 1.5 -1.91342 12.6194
      vertex -1.5 -3.53553 11.5355
      vertex -1.5 -1.91342 12.6194
    endloop
  endfacet
  facet normal 0 -0.555585 -0.83146
    outer loop
      vertex -1.5 1.91342 12.6194
      vertex 1.5 3.53553 11.5355
      vertex 1.5 1.91342 12.6194
    endloop
  endfacet
  facet normal -0 -0.555585 -0.83146
    outer loop
      vertex 1.5 3.53553 11.5355
      vertex -1.5 1.91342 12.6194
      vertex -1.5 3.53553 11.5355
    endloop
  endfacet
  facet normal 0 -0.195089 0.980786
    outer loop
      vertex -1.5 1.91342 3.3806
      vertex 1.5 0 3
      vertex 1.5 1.91342 3.3806
    endloop
  endfacet
  facet normal 0 -0.195089 0.980786
    outer loop
      vertex 1.5 0 3
      vertex -1.5 1.91342 3.3806
      vertex -1.5 0 3
    endloop
  endfacet
  facet normal 0 0.831462 -0.555581
    outer loop
      vertex 1.5 -4.6194 9.91342
      vertex -1.5 -3.53553 11.5355
      vertex 1.5 -3.53553 11.5355
    endloop
  endfacet
  facet normal 0 0.831462 -0.555581
    outer loop
      vertex -1.5 -3.53553 11.5355
      vertex 1.5 -4.6194 9.91342
      vertex -1.5 -4.6194 9.91342
    endloop
  endfacet
  facet normal 0.951067 -0.308986 0
    outer loop
      vertex 14.4271 -13.7634 3
      vertex 15 -12 0
      vertex 15 -12 3
    endloop
  endfacet
  facet normal 0.951067 -0.308986 0
    outer loop
      vertex 15 -12 0
      vertex 14.4271 -13.7634 3
      vertex 14.4271 -13.7634 0
    endloop
  endfacet
  facet normal -0.58778 -0.809021 0
    outer loop
      vertex -14.4271 -13.7634 0
      vertex -12.9271 -14.8532 3
      vertex -14.4271 -13.7634 3
    endloop
  endfacet
  facet normal -0.58778 -0.809021 -0
    outer loop
      vertex -12.9271 -14.8532 3
      vertex -14.4271 -13.7634 0
      vertex -12.9271 -14.8532 0
    endloop
  endfacet
  facet normal -1 0 0
    outer loop
      vertex -15 -12 0
      vertex -15 12 3
      vertex -15 12 0
    endloop
  endfacet
  facet normal -1 -0 0
    outer loop
      vertex -15 12 3
      vertex -15 -12 0
      vertex -15 -12 3
    endloop
  endfacet
  facet normal -0.951067 -0.308986 0
    outer loop
      vertex -14.4271 -13.7634 0
      vertex -15 -12 3
      vertex -15 -12 0
    endloop
  endfacet
  facet normal -0.951067 -0.308986 0
    outer loop
      vertex -15 -12 3
      vertex -14.4271 -13.7634 0
      vertex -14.4271 -13.7634 3
    endloop
  endfacet
  facet normal 0 -1 0
    outer loop
      vertex -12.9271 -14.8532 0
      vertex 12.9271 -14.8532 3
      vertex -12.9271 -14.8532 3
    endloop
  endfacet
  facet normal 0 -1 -0
    outer loop
      vertex 12.9271 -14.8532 3
      vertex -12.9271 -14.8532 0
      vertex 12.9271 -14.8532 0
    endloop
  endfacet
  facet normal 0.58778 0.809021 -0
    outer loop
      vertex 14.4271 13.7634 0
      vertex 12.9271 14.8532 3
      vertex 14.4271 13.7634 3
    endloop
  endfacet
  facet normal 0.58778 0.809021 0
    outer loop
      vertex 12.9271 14.8532 3
      vertex 14.4271 13.7634 0
      vertex 12.9271 14.8532 0
    endloop
  endfacet
  facet normal 0 1 -0
    outer loop
      vertex 12.9271 14.8532 0
      vertex -12.9271 14.8532 3
      vertex 12.9271 14.8532 3
    endloop
  endfacet
  facet normal 0 1 0
    outer loop
      vertex -12.9271 14.8532 3
      vertex 12.9271 14.8532 0
      vertex -12.9271 14.8532 0
    endloop
  endfacet
  facet normal 0.951067 0.308986 0
    outer loop
      vertex 15 12 3
      vertex 14.4271 13.7634 0
      vertex 14.4271 13.7634 3
    endloop
  endfacet
  facet normal 0.951067 0.308986 0
    outer loop
      vertex 14.4271 13.7634 0
      vertex 15 12 3
      vertex 15 12 0
    endloop
  endfacet
  facet normal 1 -0 0
    outer loop
      vertex 15 -12 3
      vertex 15 12 0
      vertex 15 12 3
    endloop
  endfacet
  facet normal 1 0 0
    outer loop
      vertex 15 12 0
      vertex 15 -12 3
      vertex 15 -12 0
    endloop
  endfacet
  facet normal 0 0 -1
    outer loop
      vertex 12.9271 -14.8532 0
      vertex 15 -12 0
      vertex 14.4271 -13.7634 0
    endloop
  endfacet
  facet normal 0 0 -1
    outer loop
      vertex -15 -12 0
      vertex 15 -12 0
      vertex 12.9271 -14.8532 0
    endloop
  endfacet
  facet normal 0 0 -1
    outer loop
      vertex 15 -12 0
      vertex -15 -12 0
      vertex 15 12 0
    endloop
  endfacet
  facet normal 0 0 -1
    outer loop
      vertex 15 12 0
      vertex 12.9271 14.8532 0
      vertex 14.4271 13.7634 0
    endloop
  endfacet
  facet normal 0 0 -1
    outer loop
      vertex -15 -12 0
      vertex 12.9271 -14.8532 0
      vertex -12.9271 -14.8532 0
    endloop
  endfacet
  facet normal 0 0 -1
    outer loop
      vertex -15 12 0
      vertex 15 12 0
      vertex -15 -12 0
    endloop
  endfacet
  facet normal 0 0 -1
    outer loop
      vertex -15 -12 0
      vertex -12.9271 -14.8532 0
      vertex -14.4271 -13.7634 0
    endloop
  endfacet
  facet normal 0 0 -1
    outer loop
      vertex 15 12 0
      vertex -15 12 0
      vertex 12.9271 14.8532 0
    endloop
  endfacet
  facet normal -0 0 -1
    outer loop
      vertex 12.9271 14.8532 0
      vertex -15 12 0
      vertex -12.9271 14.8532 0
    endloop
  endfacet
  facet normal 0 0 -1
    outer loop
      vertex -12.9271 14.8532 0
      vertex -15 12 0
      vertex -14.4271 13.7634 0
    endloop
  endfacet
  facet normal 0 0 1
    outer loop
      vertex 12.9271 14.8532 3
      vertex 15 12 3
      vertex 14.4271 13.7634 3
    endloop
  endfacet
  facet normal 0 0 1
    outer loop
      vertex 15 12 3
      vertex 1.5 0 3
      vertex 15 -12 3
    endloop
  endfacet
  facet normal 0 0 1
    outer loop
      vertex 15 12 3
      vertex 12.9271 14.8532 3
      vertex 1.5 6.18035 3
    endloop
  endfacet
  facet normal -0 0 1
    outer loop
      vertex 1.5 -6.18035 3
      vertex 15 -12 3
      vertex 1.5 0 3
    endloop
  endfacet
  facet normal 0 0 1
    outer loop
      vertex 15 12 3
      vertex 1.5 6.18035 3
      vertex 1.5 0 3
    endloop
  endfacet
  facet normal 0 0 1
    outer loop
      vertex 12.9271 14.8532 3
      vertex -1.5 6.18035 3
      vertex 1.5 6.18035 3
    endloop
  endfacet
  facet normal 0 0 1
    outer loop
      vertex -15 12 3
      vertex -1.5 0 3
      vertex -1.5 6.18035 3
    endloop
  endfacet
  facet normal -0 0 1
    outer loop
      vertex -15 12 3
      vertex -1.5 6.18035 3
      vertex -12.9271 14.8532 3
    endloop
  endfacet
  facet normal -0 0 1
    outer loop
      vertex -12.9271 14.8532 3
      vertex -1.5 6.18035 3
      vertex 12.9271 14.8532 3
    endloop
  endfacet
  facet normal 0 -0 1
    outer loop
      vertex 12.9271 -14.8532 3
      vertex 15 -12 3
      vertex 1.5 -6.18035 3
    endloop
  endfacet
  facet normal 0 0 1
    outer loop
      vertex 15 -12 3
      vertex 12.9271 -14.8532 3
      vertex 14.4271 -13.7634 3
    endloop
  endfacet
  facet normal -0 0 1
    outer loop
      vertex -1.5 -6.18035 3
      vertex 12.9271 -14.8532 3
      vertex 1.5 -6.18035 3
    endloop
  endfacet
  facet normal 0 0 1
    outer loop
      vertex -1.5 -6.18035 3
      vertex -12.9271 -14.8532 3
      vertex 12.9271 -14.8532 3
    endloop
  endfacet
  facet normal 0 0 1
    outer loop
      vertex -15 -12 3
      vertex -1.5 0 3
      vertex -15 12 3
    endloop
  endfacet
  facet normal 0 0 1
    outer loop
      vertex -15 12 3
      vertex -12.9271 14.8532 3
      vertex -14.4271 13.7634 3
    endloop
  endfacet
  facet normal 0 0 1
    outer loop
      vertex -1.5 0 3
      vertex -15 -12 3
      vertex -1.5 -6.18035 3
    endloop
  endfacet
  facet normal 0 0 1
    outer loop
      vertex -1.5 -6.18035 3
      vertex -15 -12 3
      vertex -12.9271 -14.8532 3
    endloop
  endfacet
  facet normal 0 0 1
    outer loop
      vertex -12.9271 -14.8532 3
      vertex -15 -12 3
      vertex -14.4271 -13.7634 3
    endloop
  endfacet
  facet normal -0.951067 0.308986 0
    outer loop
      vertex -15 12 0
      vertex -14.4271 13.7634 3
      vertex -14.4271 13.7634 0
    endloop
  endfacet
  facet normal -0.951067 0.308986 0
    outer loop
      vertex -14.4271 13.7634 3
      vertex -15 12 0
      vertex -15 12 3
    endloop
  endfacet
  facet normal 0.58778 -0.809021 0
    outer loop
      vertex 12.9271 -14.8532 0
      vertex 14.4271 -13.7634 3
      vertex 12.9271 -14.8532 3
    endloop
  endfacet
  facet normal 0.58778 -0.809021 0
    outer loop
      vertex 14.4271 -13.7634 3
      vertex 12.9271 -14.8532 0
      vertex 14.4271 -13.7634 0
    endloop
  endfacet
  facet normal -0.58778 0.809021 0
    outer loop
      vertex -12.9271 14.8532 0
      vertex -14.4271 13.7634 3
      vertex -12.9271 14.8532 3
    endloop
  endfacet
  facet normal -0.58778 0.809021 0
    outer loop
      vertex -14.4271 13.7634 3
      vertex -12.9271 14.8532 0
      vertex -14.4271 13.7634 0
    endloop
  endfacet
endsolid OpenSCAD_Model
